<?xml version="1.0" encoding="UTF-8" standalone="no"?>
<!DOCTYPE svg PUBLIC "-//W3C//DTD SVG 1.1//EN"
 "http://www.w3.org/Graphics/SVG/1.1/DTD/svg11.dtd">
<!-- Generated by graphviz version 2.47.0 (20210316.0004)
 -->
<!-- Title: dependencies Pages: 1 -->
<svg width="590pt" height="211pt"
 viewBox="0.00 0.00 590.00 211.00" xmlns="http://www.w3.org/2000/svg" xmlns:xlink="http://www.w3.org/1999/xlink">
<g id="graph0" class="graph" transform="scale(1 1) rotate(0) translate(4 207)">
<title>dependencies</title>
<polygon fill="white" stroke="transparent" points="-4,4 -4,-207 586,-207 586,4 -4,4"/>
<text text-anchor="start" x="270.01" y="-42.4" font-family="Times-12" font-weight="bold" font-size="14.00">Legend</text>
<polygon fill="#ffffb3" stroke="transparent" points="57,-10 57,-30 77,-30 77,-10 57,-10"/>
<text text-anchor="start" x="80.63" y="-15.4" font-family="Times-12" font-size="14.00"> &#160;Declarations</text>
<polygon fill="#8dd3c7" stroke="transparent" points="170,-10 170,-30 190,-30 190,-10 170,-10"/>
<text text-anchor="start" x="193.73" y="-15.4" font-family="Times-12" font-size="14.00"> &#160;Module</text>
<polygon fill="#80b1d3" stroke="transparent" points="256,-10 256,-30 276,-30 276,-10 256,-10"/>
<text text-anchor="start" x="279.78" y="-15.4" font-family="Times-12" font-size="14.00"> &#160;Bootstrap</text>
<polygon fill="#fdb462" stroke="transparent" points="353,-10 353,-30 373,-30 373,-10 353,-10"/>
<text text-anchor="start" x="376.67" y="-15.4" font-family="Times-12" font-size="14.00"> &#160;Providers</text>
<polygon fill="#fb8072" stroke="transparent" points="449,-10 449,-30 469,-30 469,-10 449,-10"/>
<text text-anchor="start" x="472.73" y="-15.4" font-family="Times-12" font-size="14.00"> &#160;Exports</text>
<g id="clust1" class="cluster">
<title>cluster_AppModule</title>
<polygon fill="none" stroke="black" stroke-dasharray="1,5" points="8,-70 8,-195 574,-195 574,-70 8,-70"/>
</g>
<g id="clust3" class="cluster">
<title>cluster_AppModule_imports</title>
<polygon fill="none" stroke="black" points="16,-78 16,-130 566,-130 566,-78 16,-78"/>
</g>
<!-- CityModule -->
<g id="node1" class="node">
<title>CityModule</title>
<polygon fill="#8dd3c7" stroke="black" points="557.67,-122 554.67,-126 533.67,-126 530.67,-122 474.33,-122 474.33,-86 557.67,-86 557.67,-122"/>
<text text-anchor="middle" x="516" y="-99.8" font-family="Times,serif" font-size="14.00">CityModule</text>
</g>
<!-- AppModule -->
<g id="node6" class="node">
<title>AppModule</title>
<polygon fill="#8dd3c7" stroke="black" points="324.66,-187 321.66,-191 300.66,-191 297.66,-187 241.34,-187 241.34,-151 324.66,-151 324.66,-187"/>
<text text-anchor="middle" x="283" y="-164.8" font-family="Times,serif" font-size="14.00">AppModule</text>
</g>
<!-- CityModule&#45;&gt;AppModule -->
<g id="edge1" class="edge">
<title>CityModule&#45;&gt;AppModule</title>
<path fill="none" stroke="black" d="M516,-122.28C516,-143.32 516,-175 516,-175 516,-175 334.92,-175 334.92,-175"/>
<polygon fill="black" stroke="black" points="334.92,-171.5 324.92,-175 334.92,-178.5 334.92,-171.5"/>
</g>
<!-- CountryModule -->
<g id="node2" class="node">
<title>CountryModule</title>
<polygon fill="#8dd3c7" stroke="black" points="455.94,-122 452.94,-126 431.94,-126 428.94,-122 350.06,-122 350.06,-86 455.94,-86 455.94,-122"/>
<text text-anchor="middle" x="403" y="-99.8" font-family="Times,serif" font-size="14.00">CountryModule</text>
</g>
<!-- CountryModule&#45;&gt;AppModule -->
<g id="edge2" class="edge">
<title>CountryModule&#45;&gt;AppModule</title>
<path fill="none" stroke="black" d="M403,-122.02C403,-139.37 403,-163 403,-163 403,-163 334.97,-163 334.97,-163"/>
<polygon fill="black" stroke="black" points="334.97,-159.5 324.97,-163 334.97,-166.5 334.97,-159.5"/>
</g>
<!-- PrismaModule -->
<g id="node3" class="node">
<title>PrismaModule</title>
<polygon fill="#8dd3c7" stroke="black" points="332.43,-122 329.43,-126 308.43,-126 305.43,-122 233.57,-122 233.57,-86 332.43,-86 332.43,-122"/>
<text text-anchor="middle" x="283" y="-99.8" font-family="Times,serif" font-size="14.00">PrismaModule</text>
</g>
<!-- PrismaModule&#45;&gt;AppModule -->
<g id="edge3" class="edge">
<title>PrismaModule&#45;&gt;AppModule</title>
<path fill="none" stroke="black" d="M283,-122.11C283,-122.11 283,-140.99 283,-140.99"/>
<polygon fill="black" stroke="black" points="279.5,-140.99 283,-150.99 286.5,-140.99 279.5,-140.99"/>
</g>
<!-- StateModule -->
<g id="node4" class="node">
<title>StateModule</title>
<polygon fill="#8dd3c7" stroke="black" points="215.54,-122 212.54,-126 191.54,-126 188.54,-122 128.46,-122 128.46,-86 215.54,-86 215.54,-122"/>
<text text-anchor="middle" x="172" y="-99.8" font-family="Times,serif" font-size="14.00">StateModule</text>
</g>
<!-- StateModule&#45;&gt;AppModule -->
<g id="edge4" class="edge">
<title>StateModule&#45;&gt;AppModule</title>
<path fill="none" stroke="black" d="M172,-122.02C172,-139.37 172,-163 172,-163 172,-163 231.04,-163 231.04,-163"/>
<polygon fill="black" stroke="black" points="231.04,-166.5 241.04,-163 231.04,-159.5 231.04,-166.5"/>
</g>
<!-- UserModule -->
<g id="node5" class="node">
<title>UserModule</title>
<polygon fill="#8dd3c7" stroke="black" points="109.98,-122 106.98,-126 85.98,-126 82.98,-122 24.02,-122 24.02,-86 109.98,-86 109.98,-122"/>
<text text-anchor="middle" x="67" y="-99.8" font-family="Times,serif" font-size="14.00">UserModule</text>
</g>
<!-- UserModule&#45;&gt;AppModule -->
<g id="edge5" class="edge">
<title>UserModule&#45;&gt;AppModule</title>
<path fill="none" stroke="black" d="M67,-122.28C67,-143.32 67,-175 67,-175 67,-175 231.1,-175 231.1,-175"/>
<polygon fill="black" stroke="black" points="231.1,-178.5 241.1,-175 231.1,-171.5 231.1,-178.5"/>
</g>
</g>
</svg>
